#!OML:ASF G:\JayActor3\Patient Classification 1\Patient 1\Session 6\male.ASF
:FULLY-SPECIFIED
:DEGREES
1757
root -36.1167 16.8853 -14.7062 -338.693 -159.966 1.83036
lowerback 23.3908 -0.640214 7.91202
upperback -0.042982 1.13739 0.261729
thorax -13.0869 -0.083114 -4.60795
lowerneck 3.20477 13.4384 10.8869
upperneck 5.26316 18.1487 -4.30672
head 2.68259 9.16279 -2.77111
rclavicle 6.59965e-014 1.15295e-014
rhumerus -46.0068 3.18586 -85.7712
rradius 56.1135
rwrist 1.29997
rhand -21.0283 4.75801
rfingers 7.12502
rthumb 5.34701 -25.1545
lclavicle 6.59965e-014 1.15295e-014
lhumerus -57.2326 -32.3553 95.789
lradius 61.2813
lwrist 39.3427
lhand -27.9096 -2.03624
lfingers 7.12502
lthumb -1.29858 27.9396
rfemur -38.5602 2.02063 26.8777
rtibia 35.9852
rfoot -22.3252 -21.5257
rtoes -1.54074
lfemur -35.1789 13.9895 -25.1447
ltibia 23.5692
lfoot -13.2906 -14.3111
ltoes -24.4513
1758
root -36.1166 16.8858 -14.7114 -338.674 -159.917 1.83668
lowerback 23.3843 -0.649578 7.90923
upperback -0.0380416 1.12403 0.269114
thorax -13.0795 -0.0883639 -4.59318
lowerneck 3.20428 13.4345 10.9026
upperneck 5.23635 18.1469 -4.3431
head 2.67928 9.16186 -2.78625
rclavicle -5.76476e-015 -3.18055e-015
rhumerus -45.9733 3.16927 -85.7602
rradius 56.1245
rwrist 1.31561
rhand -21.0161 4.78809
rfingers 7.12502
rthumb 5.35885 -25.1241
lclavicle -5.76476e-015 -3.18055e-015
lhumerus -57.2202 -32.3483 95.786
lradius 61.2765
lwrist 39.3057
lhand -27.9705 -2.03171
lfingers 7.12502
lthumb -1.35741 27.9437
rfemur -38.5584 1.98125 26.9063
rtibia 35.9764
rfoot -22.322 -21.5295
rtoes -1.63109
lfemur -35.1927 13.9911 -25.1344
ltibia 23.5708
lfoot -13.2977 -14.3604
ltoes -24.5787
1759
root -36.1164 16.8864 -14.7164 -338.65 -159.864 1.84198
lowerback 23.3746 -0.661981 7.90984
upperback -0.0332851 1.10726 0.275503
thorax -13.0709 -0.0953521 -4.58032
lowerneck 3.21603 13.4343 10.9042
upperneck 5.19301 18.1508 -4.37609
head 2.66664 9.16351 -2.79939
rclavicle -4.37326e-015 2.78299e-015
rhumerus -45.9446 3.15478 -85.7517
rradius 56.1506
rwrist 1.32223
rhand -21.0174 4.81895
rfingers 7.12502
rthumb 5.35751 -25.0933
lclavicle -4.37326e-015 2.78299e-015
lhumerus -57.2134 -32.3466 95.7804
lradius 61.2827
lwrist 39.2653
lhand -28.0108 -2.02278
lfingers 7.12502
lthumb -1.39636 27.9524
rfemur -38.5611 1.94417 26.9329
rtibia 35.9674
rfoot -22.3282 -21.5257
rtoes -1.66412
lfemur -35.2108 13.9821 -25.1214
ltibia 23.5734
lfoot -13.2975 -14.4048
ltoes -24.6837
1760
root -36.1161 16.8872 -14.7213 -338.625 -159.811 1.84755
lowerback 23.3634 -0.673532 7.91566
upperback -0.0282797 1.09249 0.278648
thorax -13.0607 -0.101803 -4.5748
lowerneck 3.22786 13.4312 10.902
upperneck 5.14717 18.1503 -4.40181
head 2.65149 9.16287 -2.81002
rclavicle 3.45885e-014 1.27222e-014
rhumerus -45.9267 3.1395 -85.7481
rradius 56.1977
rwrist 1.32109
rhand -21.0281 4.85053
rfingers 7.12502
rthumb 5.34726 -25.062
lclavicle 3.45885e-014 1.27222e-014
lhumerus -57.2132 -32.358 95.7742
lradius 61.2999
lwrist 39.2329
lhand -28.0398 -2.00376
lfingers 7.12502
lthumb -1.42439 27.9712
rfemur -38.5657 1.91762 26.9562
rtibia 35.9587
rfoot -22.3448 -21.5268
rtoes -1.67163
lfemur -35.2298 13.9651 -25.1058
ltibia 23.5763
lfoot -13.2898 -14.4365
ltoes -24.7727
1761
root -36.116 16.888 -14.7261 -338.601 -159.762 1.85198
lowerback 23.3522 -0.684891 7.92175
upperback -0.0222098 1.07762 0.278963
thorax -13.0492 -0.108361 -4.57266
lowerneck 3.23657 13.4259 10.8941
upperneck 5.103 18.1458 -4.41816
head 2.63542 9.16008 -2.81675
rclavicle 4.17448e-014 6.36111e-015
rhumerus -45.9161 3.13561 -85.7532
rradius 56.2629
rwrist 1.31162
rhand -21.0491 4.8659
rfingers 7.12502
rthumb 5.32693 -25.0472
lclavicle 4.17448e-014 6.36111e-015
lhumerus -57.2125 -32.3715 95.7595
lradius 61.3227
lwrist 39.2174
lhand -28.0551 -1.97439
lfingers 7.12502
lthumb -1.43916 28.0005
rfemur -38.5691 1.90043 26.9744
rtibia 35.95
rfoot -22.3699 -21.5295
rtoes -1.64553
lfemur -35.2451 13.9383 -25.0884
ltibia 23.5793
lfoot -13.2729 -14.4502
ltoes -24.8374
1762
root -36.116 16.8887 -14.7311 -338.581 -159.718 1.85513
lowerback 23.3422 -0.69557 7.92476
upperback -0.0141747 1.06239 0.276789
thorax -13.0361 -0.114899 -4.57148
lowerneck 3.23495 13.4185 10.8836
upperneck 5.07253 18.1361 -4.42101
head 2.62359 9.1547 -2.81775
rclavicle -8.74653e-015 1.31198e-014
rhumerus -45.9106 3.14474 -85.7688
rradius 56.3419
rwrist 1.29598
rhand -21.0783 4.8597
rfingers 7.12502
rthumb 5.29877 -25.054
lclavicle -8.74653e-015 1.31198e-014
lhumerus -57.21 -32.3781 95.7365
lradius 61.3465
lwrist 39.2125
lhand -28.0404 -1.94834
lfingers 7.12502
lthumb -1.42496 28.0266
rfemur -38.5667 1.89456 26.9869
rtibia 35.9413
rfoot -22.3925 -21.5388
rtoes -1.6039
lfemur -35.252 13.9008 -25.0679
ltibia 23.5831
lfoot -13.2579 -14.4395
ltoes -24.9074
